# File generated by ImageToStl.com - Free Image and 3D model conversion tools

o obj1
v 0.09488740 0.10361710 -0.00835010
v 0.08739600 0.07660733 -0.03489677
v 0.08806356 0.11502676 -0.03117108
v 0.05444598 0.06511257 -0.07318724
v 0.02329599 0.07864223 -0.09154503
v 0.04022765 0.09833904 -0.08676020
v -0.08721502 0.13086081 0.01446128
v -0.09471717 0.10273738 -0.01089951
v -0.08923508 0.11980422 0.02329192
v -0.07338079 0.15481436 0.00988305
v -0.07453850 0.14729698 -0.02796556
v -0.08164758 0.14315475 0.00975267
v 0.07337611 0.03346134 -0.00988002
v 0.08164296 0.04512121 -0.00974963
v 0.07453382 0.04097872 0.02796859
v -0.08740068 0.11166837 0.03489980
v -0.08806824 0.07324894 0.03117410
v -0.08199080 0.10769165 0.04751855
v -0.06367294 0.16406492 0.01483232
v -0.03935258 0.18082503 -0.01002687
v -0.05760685 0.16699378 -0.02318073
v 0.02255024 0.00159078 -0.00949022
v 0.05399756 0.01877807 -0.02384392
v 0.03934789 0.00745067 0.01002989
v 0.03859185 0.03010253 -0.05977855
v 0.00294215 0.01600392 -0.05522616
v 0.00311732 0.03408264 -0.07447899
v -0.00312200 0.15419306 0.07448201
v 0.02978847 0.13231791 0.08257555
v 0.03466294 0.15901581 0.06126190
v 0.08198596 0.08058395 -0.04751533
v 0.04061202 0.04115895 -0.06860899
v 0.04583603 0.01799013 -0.03555193
v 0.00976627 0.00459420 -0.03240519
v 0.04617920 0.05345296 -0.07331763
v 0.01026444 0.05607830 -0.08723232
v -0.05445066 0.12316313 0.07319028
v -0.02330067 0.10963347 0.09154806
v -0.04618388 0.13482274 0.07332065
v 0.06415366 0.07436303 -0.06823796
v 0.06366826 0.02421078 -0.01482930
v 0.08721033 0.05741489 -0.01445826
v 0.09471249 0.08553832 0.01090253
v 0.08756511 0.06354272 0.02365607
v -0.08756979 0.12473298 -0.02365304
v -0.05400224 0.16949763 0.02384696
v -0.02255492 0.18668492 0.00949324
v 0.05760217 0.02128192 0.02318375
v -0.09489208 0.08465860 0.00835313
v 0.04042609 0.02196659 -0.04817029
v 0.08923040 0.06847148 -0.02328890
v -0.06415834 0.11391267 0.06824099
v -0.05848660 0.07610542 0.07360937
v -0.04023233 0.08993666 0.08676324
v -0.07528426 0.07024553 0.05408907
v 0.05848192 0.11217028 -0.07360634
v 0.07382479 0.07979577 -0.05922314
v -0.07382947 0.10847993 0.05922617
v -0.01026912 0.13219740 0.08723535
v -0.03859653 0.15817317 0.05978158
v -0.04061669 0.14711675 0.06861203
v -0.00977094 0.18368150 0.03240821
v -0.04043086 0.16630928 0.04817332
v -0.00294683 0.17227178 0.05522918
v 0.07527958 0.11803017 -0.05408604
v 0.04934475 0.03735099 0.05919458
v 0.02590923 0.01501821 0.04724917
v 0.01352064 0.16819057 -0.05913393
v -0.00254302 0.18637538 -0.02548335
v 0.03727982 0.17647523 -0.03153044
v -0.06501170 0.03218182 -0.03314840
v -0.08760254 0.06640011 -0.02684095
v -0.06476990 0.05775333 -0.06037226
v 0.06929952 0.06550161 0.05950684
v 0.03625248 0.06748883 0.08449470
v -0.01635072 0.08562082 -0.09393382
v -0.03624120 0.12077560 -0.08450199
v 0.00360333 0.11377189 -0.09362116
v -0.02978555 0.05593959 -0.08256678
v 0.08316644 0.14152128 -0.00119718
v 0.08760335 0.12187794 0.02682291
v 0.05536542 0.17222314 0.00087205
v 0.03022959 0.17866480 0.03324143
v 0.06502190 0.15608330 0.03314168
v 0.01230754 0.03963317 0.07772793
v -0.02704670 0.05215227 0.08166863
v -0.01350935 0.02007386 0.05912642
v 0.00255832 0.00190185 0.02549020
v -0.03726962 0.01178990 0.03152389
v -0.01715015 0.00000000 -0.00276997
v 0.06478134 0.13051120 0.06036494
v -0.01229734 0.14863196 -0.07773447
v -0.02589288 0.17326364 -0.04724767
v -0.03465482 0.02924454 -0.06124988
v 0.05038959 0.14922094 -0.05991658
v 0.07009868 0.15112249 -0.03165680
v 0.02703946 0.13610437 -0.08167594
v -0.05039721 0.03904125 0.05990468
v 0.05467814 0.09940145 0.07839820
v 0.01716562 0.18827202 0.00278086
v 0.08273363 0.09518329 0.04814040
v -0.00360838 0.07448404 0.09361978
v -0.03021837 0.00960161 -0.03322941
v -0.08272860 0.09309856 -0.04815402
v -0.04933186 0.15093261 -0.05919845
v -0.07010505 0.03714399 0.03164010
v -0.05535414 0.01604130 -0.00087937
v -0.05466777 0.08886378 -0.07840475
v -0.08316974 0.04675168 0.00118010
v -0.06928925 0.12278267 -0.05951741
v 0.01634983 0.10263334 0.09393836
v -0.06918176 0.14268413 0.04495880
v 0.06917707 0.04559157 -0.04495579
v -0.04584071 0.17028557 0.03555495

vn 0.99084 0.10822 -0.08075
vn 0.91794 -0.16893 -0.35895
vn 0.91875 0.22876 -0.32181
vn 0.56045 -0.29365 -0.77438
vn 0.23454 -0.15557 -0.95958
vn 0.41341 0.05251 -0.90903
vn -0.91593 0.37717 0.13719
vn -0.989 0.08275 -0.12264
vn -0.93785 0.2572 0.233
vn -0.76583 0.63706 0.08752
vn -0.77585 0.55346 -0.30289
vn -0.85552 0.51056 0.0861
vn 0.76583 -0.63705 -0.08752
vn 0.85552 -0.51056 -0.0861
vn 0.77586 -0.55346 0.30286
vn -0.91794 0.16893 0.35894
vn -0.91875 -0.2288 0.32179
vn -0.85925 0.12579 0.49585
vn -0.66051 0.73742 0.14122
vn -0.40416 0.90763 -0.1134
vn -0.59699 0.76153 -0.25235
vn 0.22674 -0.96952 -0.09281
vn 0.55558 -0.79637 -0.23903
vn 0.40418 -0.90762 0.11338
vn 0.38843 -0.6735 -0.6289
vn 0.01958 -0.81728 -0.57591
vn 0.02141 -0.6263 -0.77929
vn -0.02137 0.62629 0.7793
vn 0.31717 0.39632 0.86159
vn 0.36825 0.67596 0.63833
vn 0.85925 -0.12579 -0.49585
vn 0.41035 -0.55354 -0.72471
vn 0.46703 -0.80492 -0.36605
vn 0.09168 -0.9378 -0.33485
vn 0.47075 -0.42015 -0.7758
vn 0.09689 -0.39393 -0.91402
vn -0.56045 0.29365 0.77438
vn -0.23452 0.15555 0.95959
vn -0.47075 0.42015 0.7758
vn 0.66577 -0.19329 -0.72069
vn 0.66051 -0.73742 -0.14122
vn 0.91593 -0.37717 -0.13719
vn 0.989 -0.08276 0.12261
vn 0.9135 -0.31512 0.25732
vn -0.9135 0.3151 -0.25735
vn -0.55558 0.79637 0.23903
vn -0.22671 0.96953 0.09279
vn 0.59701 -0.76152 0.25232
vn -0.99084 -0.10825 0.08073
vn 0.40833 -0.76177 -0.50296
vn 0.93785 -0.2572 -0.233
vn -0.66577 0.19329 0.72069
vn -0.60624 -0.19865 0.77008
vn -0.41339 -0.05254 0.90904
vn -0.78369 -0.26054 0.56386
vn 0.60625 0.19862 -0.77007
vn 0.7707 -0.13434 -0.62287
vn -0.7707 0.13435 0.62288
vn -0.09686 0.39392 0.91403
vn -0.38843 0.6735 0.6289
vn -0.41035 0.55354 0.72471
vn -0.09165 0.93781 0.33484
vn -0.40833 0.76177 0.50296
vn -0.01954 0.81728 0.57591
vn 0.7837 0.26051 -0.56387
vn 0.51169 -0.59118 0.62344
vn 0.26621 -0.82512 0.4983
vn 0.14125 0.77359 -0.61774
vn -0.02142 0.96253 -0.27032
vn 0.38945 0.86014 -0.32938
vn -0.67913 -0.6472 -0.34629
vn -0.91242 -0.29418 -0.28452
vn -0.6766 -0.38007 -0.63068
vn 0.72072 -0.29631 0.6267
vn 0.37871 -0.27837 0.88266
vn -0.17637 -0.08561 -0.98059
vn -0.37858 0.27828 -0.88274
vn 0.03265 0.20925 -0.97732
vn -0.3171 -0.3965 -0.86153
vn 0.866 0.49995 -0.0092
vn 0.91247 0.29421 0.28432
vn 0.57838 0.81572 0.0091
vn 0.32183 0.88177 0.34483
vn 0.67925 0.64712 0.3462
vn 0.12858 -0.56936 0.81197
vn -0.27816 -0.44335 0.85209
vn -0.14112 -0.77369 0.61765
vn 0.02162 -0.96251 0.27037
vn -0.38932 -0.86022 0.3293
vn -0.18482 -0.98244 -0.02567
vn 0.67674 0.37998 0.63059
vn -0.12845 0.56928 -0.81205
vn -0.266 0.82518 -0.49831
vn -0.36813 -0.67611 -0.63824
vn 0.5227 0.58057 -0.62428
vn 0.72914 0.6005 -0.32826
vn 0.27813 0.44317 -0.8522
vn -0.52274 -0.5807 0.62413
vn 0.5712 0.055 0.81897
vn 0.18501 0.9824 0.02575
vn 0.86145 0.0146 0.50762
vn -0.03266 -0.20945 0.97727
vn -0.32168 -0.88186 -0.34473
vn -0.86136 -0.01453 -0.50779
vn -0.51152 0.59127 -0.6235
vn -0.72916 -0.60058 0.32807
vn -0.57824 -0.81581 -0.00919
vn -0.57107 -0.05509 -0.81905
vn -0.866 -0.49997 0.009
vn -0.72058 0.2964 -0.62683
vn 0.17639 0.0854 0.98061
vn -0.72267 0.50713 0.46964
vn 0.72267 -0.50713 -0.46964
vn -0.46703 0.80492 0.36605
vt 0.4469 1.22919
vt 0.20868 1.16541
vt 0.32538 1.38269
vt -0.16467 1.20886
vt -0.38196 1.32556
vt -0.22845 1.44714
vt 0.73425 1.02783
vt 0.50012 0.95337
vt 0.74408 0.92426
vt 0.83118 1.20758
vt 0.61298 1.32044
vt 0.76489 1.12732
vt 0.16522 0.79205
vt 0.23242 0.87103
vt 0.38245 0.67535
vt 0.79279 0.83228
vt 0.67987 0.61401
vt 0.87305 0.76593
vt 0.92316 1.25629
vt 0.95239 1.50024
vt 0.76483 1.44409
vt -0.15387 0.52295
vt -0.03046 0.73639
vt 0.04059 0.50031
vt -0.25543 0.9278
vt -0.44641 0.77179
vt -0.49988 0.96008
vt 0.29071 0.49512
vt 0.19537 0.22546
vt 0.38593 0.22546
vt 0.1297 1.2326
vt -0.26373 1.03113
vt -0.12915 0.76825
vt -0.32489 0.61823
vt -0.23187 1.12988
vt -0.47729 1.1546
vt 1.16809 0.79388
vt 1.38635 0.68091
vt 1.23444 0.87408
vt -0.07239 1.2561
vt 0.07294 0.74475
vt 0.26428 0.96973
vt 0.50043 1.04083
vt 0.47778 0.84637
vt 0.52008 1.14813
vt 1.02679 1.26611
vt 1.14716 1.48035
vt 0.22894 0.55383
vt 0.55627 0.76581
vt -0.20813 0.83545
vt 0.25598 1.07312
vt 1.07611 0.74512
vt 1.047 0.5011
vt 1.23456 0.55725
vt 0.85223 0.52106
vt -0.0401 1.50061
vt 0.03101 1.26446
vt 0.97253 0.73535
vt 1.47931 0.85321
vt 1.25525 1.07721
vt 1.26502 0.97357
vt 1.49921 1.04804
vt 1.31946 1.38739
vt 1.20648 1.16919
vt 1.44311 1.2356
vt 0.15436 1.47803
vt 0.10016 -0.49512
vt 0.57654 -0.22412
vt 0.38599 -0.22418
vt 0.29071 0.00061
vt 0.10016 0.00055
vt 0.4812 0.00067
vt 0.19543 -0.22424
vt 0.4812 -0.49512
vt 0.29071 -0.49512
vt 0.4812 0.49512
vt 0.57642 0.22552
vt 0.99963 1.00073
vt 0.00031 1.00043
vt 1.12628 1.23554
vt 0.10016 0.49512

f 1/1/1 2/2/2 3/3/3
f 4/4/4 5/5/5 6/6/6
f 7/7/7 8/8/8 9/9/9
f 10/10/10 11/11/11 12/12/12
f 13/13/13 14/14/14 15/15/15
f 16/16/16 17/17/17 18/18/18
f 19/19/19 20/20/20 21/21/21
f 22/22/22 23/23/23 24/24/24
f 25/25/25 26/26/26 27/27/27
f 28/28/28 29/29/29 30/30/30
f 31/31/31 3/3/3 2/2/2
f 32/32/32 25/25/25 27/27/27
f 33/33/33 22/22/22 34/34/34
f 5/5/5 35/35/35 36/36/36
f 37/37/37 38/38/38 39/39/39
f 40/40/40 4/4/4 6/6/6
f 41/41/41 24/24/24 23/23/23
f 42/42/42 43/43/43 44/44/44
f 12/12/12 45/45/45 7/7/7
f 46/46/46 47/47/47 20/20/20
f 10/10/10 19/19/19 21/21/21
f 13/13/13 48/48/48 41/41/41
f 9/9/9 49/49/49 16/16/16
f 50/50/50 34/34/34 26/26/26
f 51/51/51 1/1/1 43/43/43
f 52/52/52 53/53/53 54/54/54
f 55/55/55 18/18/18 17/17/17
f 14/14/14 44/44/44 15/15/15
f 40/40/40 56/56/56 57/57/57
f 37/37/37 52/52/52 54/54/54
f 58/58/58 55/55/55 53/53/53
f 59/59/59 39/39/39 38/38/38
f 32/32/32 36/36/36 35/35/35
f 60/60/60 61/61/61 28/62/28
f 61/61/61 59/59/59 28/62/28
f 62/63/62 63/64/63 64/65/64
f 60/60/60 64/65/64 63/64/63
f 57/57/57 65/66/65 31/31/31
f 48/67/48 66/68/66 67/69/67
f 68/70/68 69/29/69 70/71/70
f 71/72/71 72/30/72 73/70/73
f 74/69/74 75/70/75 66/73/66
f 76/69/76 77/70/77 78/73/78
f 36/74/36 79/68/79 76/69/76
f 1/67/1 80/68/80 81/69/81
f 82/70/82 83/29/83 84/71/84
f 85/72/85 86/30/86 87/70/87
f 66/73/66 85/72/85 67/69/67
f 88/73/88 89/72/89 90/69/90
f 5/75/5 76/69/76 78/73/78
f 64/76/64 30/30/30 83/77/83
f 84/72/84 30/30/30 91/70/91
f 92/72/92 93/30/93 68/70/68
f 94/69/94 73/70/73 79/73/79
f 95/73/95 70/72/70 96/69/96
f 56/75/56 97/69/97 95/73/95
f 55/76/55 98/29/98 53/28/53
f 91/70/91 29/29/29 99/71/99
f 70/72/70 100/30/100 82/70/82
f 101/73/101 99/72/99 74/69/74
f 43/75/43 81/69/81 101/73/101
f 44/67/44 101/68/101 74/69/74
f 86/30/86 53/28/53 98/29/98
f 75/70/75 102/29/102 85/71/85
f 67/69/67 87/70/87 88/73/88
f 103/73/103 71/72/71 94/69/94
f 80/73/80 84/72/84 81/69/81
f 45/76/45 104/29/104 8/28/8
f 22/74/22 90/69/90 34/75/34
f 15/75/15 74/69/74 66/73/66
f 77/70/77 105/29/105 92/71/92
f 89/72/89 106/30/106 107/70/107
f 97/69/97 68/70/68 95/73/95
f 79/73/79 108/72/108 76/69/76
f 21/76/21 93/30/93 105/77/105
f 3/75/3 96/69/96 80/73/80
f 107/70/107 109/29/109 71/71/71
f 108/72/108 110/30/110 77/70/77
f 81/69/81 91/70/91 101/73/101
f 78/73/78 92/72/92 97/69/97
f 62/28/62 83/29/83 100/30/100
f 27/75/27 79/73/79 36/67/36
f 20/28/20 69/29/69 93/30/93
f 73/70/73 104/29/104 108/71/108
f 99/72/99 111/30/111 75/70/75
f 96/69/96 82/70/82 80/73/80
f 90/69/90 107/70/107 103/73/103
f 24/75/24 67/69/67 88/73/88
f 110/30/110 45/76/45 11/28/11
f 112/78/112 9/9/9 16/16/16
f 7/7/7 9/9/9 112/78/112
f 12/12/12 7/7/7 112/78/112
f 49/76/49 109/29/109 17/28/17
f 72/30/72 8/28/8 104/29/104
f 47/76/47 100/30/100 69/77/69
f 54/76/54 86/30/86 102/77/102
f 38/28/38 102/29/102 111/30/111
f 59/76/59 111/30/111 29/77/29
f 106/30/106 17/28/17 109/29/109
f 65/67/65 95/68/95 96/69/96
f 34/75/34 103/73/103 26/67/26
f 6/67/6 78/68/78 97/69/97
f 11/28/11 105/29/105 110/30/110
f 87/70/87 98/29/98 89/71/89
f 22/67/22 24/75/24 88/73/88
f 26/74/26 94/69/94 27/75/27
f 113/79/113 2/2/2 51/51/51
f 31/31/31 2/2/2 113/79/113
f 57/57/57 31/31/31 113/79/113
f 113/79/113 40/40/40 57/57/57
f 4/4/4 40/40/40 113/79/113
f 35/35/35 4/4/4 113/79/113
f 113/79/113 32/32/32 35/35/35
f 25/25/25 32/32/32 113/79/113
f 50/50/50 25/25/25 113/79/113
f 113/79/113 33/33/33 50/50/50
f 23/23/23 33/33/33 113/79/113
f 41/41/41 23/23/23 113/79/113
f 113/79/113 13/13/13 41/41/41
f 14/14/14 13/13/13 113/79/113
f 42/42/42 14/14/14 113/79/113
f 112/78/112 19/19/19 10/10/10
f 46/46/46 19/19/19 112/78/112
f 114/80/114 46/46/46 112/78/112
f 112/78/112 63/64/63 114/80/114
f 60/60/60 63/64/63 112/78/112
f 61/61/61 60/60/60 112/78/112
f 112/78/112 39/39/39 61/61/61
f 37/37/37 39/39/39 112/78/112
f 52/52/52 37/37/37 112/78/112
f 112/78/112 58/58/58 52/52/52
f 18/18/18 58/58/58 112/78/112
f 16/16/16 18/18/18 112/78/112
f 51/51/51 42/42/42 113/79/113
f 10/10/10 12/12/12 112/78/112
f 114/80/114 62/63/62 47/47/47
f 28/28/28 59/81/59 29/29/29
f 31/31/31 65/66/65 3/3/3
f 37/37/37 54/54/54 38/38/38
f 41/41/41 48/48/48 24/24/24
f 42/42/42 51/51/51 43/43/43
f 46/46/46 114/80/114 47/47/47
f 13/13/13 15/15/15 48/48/48
f 51/51/51 2/2/2 1/1/1
f 14/14/14 42/42/42 44/44/44
f 40/40/40 6/6/6 56/56/56
f 61/61/61 39/39/39 59/59/59
f 60/60/60 28/62/28 64/65/64
f 57/57/57 56/56/56 65/66/65
f 48/67/48 15/75/15 66/68/66
f 68/70/68 93/30/93 69/29/69
f 74/69/74 99/72/99 75/70/75
f 1/67/1 3/75/3 80/68/80
f 82/70/82 100/30/100 83/29/83
f 85/72/85 102/77/102 86/30/86
f 66/73/66 75/70/75 85/72/85
f 64/76/64 28/28/28 30/30/30
f 84/72/84 83/77/83 30/30/30
f 95/73/95 68/70/68 70/72/70
f 56/75/56 6/74/6 97/69/97
f 91/70/91 30/30/30 29/29/29
f 70/72/70 69/77/69 100/30/100
f 101/73/101 91/70/91 99/72/99
f 43/75/43 1/74/1 81/69/81
f 44/67/44 43/75/43 101/68/101
f 75/70/75 111/30/111 102/29/102
f 67/69/67 85/72/85 87/70/87
f 80/73/80 82/70/82 84/72/84
f 15/75/15 44/74/44 74/69/74
f 97/69/97 92/72/92 68/70/68
f 3/75/3 65/74/65 96/69/96
f 81/69/81 84/72/84 91/70/91
f 62/28/62 64/81/64 83/29/83
f 20/28/20 47/81/47 69/29/69
f 99/72/99 29/77/29 111/30/111
f 96/69/96 70/72/70 82/70/82
f 24/75/24 48/74/48 67/69/67
f 47/76/47 62/28/62 100/30/100
f 54/76/54 53/28/53 86/30/86
f 38/28/38 54/81/54 102/29/102
f 59/76/59 38/28/38 111/30/111
f 65/67/65 56/75/56 95/68/95
f 114/80/114 63/64/63 62/63/62
f 4/4/4 35/35/35 5/5/5
f 7/7/7 45/45/45 8/8/8
f 10/10/10 21/21/21 11/11/11
f 16/16/16 49/49/49 17/17/17
f 19/19/19 46/46/46 20/20/20
f 25/25/25 50/50/50 26/26/26
f 33/33/33 23/23/23 22/22/22
f 12/12/12 11/11/11 45/45/45
f 9/9/9 8/8/8 49/49/49
f 50/50/50 33/33/33 34/34/34
f 52/52/52 58/58/58 53/53/53
f 58/58/58 18/18/18 55/55/55
f 32/32/32 27/27/27 36/36/36
f 71/72/71 109/77/109 72/30/72
f 76/69/76 108/72/108 77/70/77
f 88/73/88 87/70/87 89/72/89
f 5/75/5 36/74/36 76/69/76
f 92/72/92 105/77/105 93/30/93
f 94/69/94 71/72/71 73/70/73
f 55/76/55 106/30/106 98/29/98
f 103/73/103 107/70/107 71/72/71
f 45/76/45 110/30/110 104/29/104
f 22/74/22 88/68/88 90/69/90
f 77/70/77 110/30/110 105/29/105
f 89/72/89 98/77/98 106/30/106
f 79/73/79 73/70/73 108/72/108
f 21/76/21 20/28/20 93/30/93
f 107/70/107 106/30/106 109/29/109
f 108/72/108 104/77/104 110/30/110
f 78/73/78 77/70/77 92/72/92
f 27/75/27 94/69/94 79/73/79
f 73/70/73 72/30/72 104/29/104
f 90/69/90 89/72/89 107/70/107
f 49/76/49 72/30/72 109/29/109
f 72/30/72 49/76/49 8/28/8
f 106/30/106 55/76/55 17/28/17
f 34/75/34 90/69/90 103/73/103
f 6/67/6 5/75/5 78/68/78
f 11/28/11 21/81/21 105/29/105
f 87/70/87 86/30/86 98/29/98
f 26/74/26 103/68/103 94/69/94
# Vertices: 114, normals: 114, texture coordinates: 81, faces: 224

