# Blender 4.1.0
# www.blender.org
mtllib LowPolyMill.mtl
o Mill
v -0.214832 -0.044545 0.393178
v -0.170246 0.419559 0.345304
v 0.352531 -0.044545 0.422660
v 0.313147 0.419559 0.370423
v 0.387681 -0.044545 -0.253763
v 0.343095 0.419559 -0.205890
v -0.179683 -0.044545 -0.283246
v -0.140299 0.419559 -0.231009
v -0.134999 0.436599 0.307458
v 0.282013 0.436599 0.329127
v 0.307848 0.436599 -0.168043
v -0.109164 0.436599 -0.189713
v -0.134999 1.047927 0.307458
v 0.282013 1.047927 0.329128
v 0.307848 1.047927 -0.168043
v -0.109164 1.047927 -0.189713
v -0.121819 1.047927 0.053820
v 0.295193 1.047927 0.075489
v -0.167836 1.064631 0.342716
v 0.311019 1.064631 0.367599
v 0.340685 1.064631 -0.203302
v -0.138170 1.064631 -0.228185
v -0.152740 1.339011 0.052213
v 0.326114 1.339011 0.077096
v -0.205381 -0.017033 0.259327
v -0.179734 0.259953 0.249284
v -0.196163 -0.017033 0.081934
v -0.171695 0.259953 0.094581
v -0.173792 -0.021102 0.260968
v -0.148145 0.255885 0.250925
v -0.164574 -0.021102 0.083576
v -0.140106 0.255885 0.096223
v 0.283419 0.463679 0.302071
v 0.306442 0.463679 -0.140987
v 0.283419 1.020847 0.302071
v 0.306442 1.020847 -0.140987
v 0.295193 1.020847 0.075489
v -0.133593 0.463679 0.280401
v -0.110570 0.463679 -0.162656
v -0.133593 1.020847 0.280401
v -0.110570 1.020847 -0.162656
v -0.121819 1.020847 0.053820
v -0.112305 0.463679 0.308637
v 0.259318 0.463679 0.327948
v -0.112305 1.020847 0.308637
v 0.259318 1.020847 0.327948
v 0.285153 0.463679 -0.169223
v -0.086470 0.463679 -0.188534
v 0.285153 1.020847 -0.169223
v -0.086470 1.020847 -0.188534
v 0.266682 0.463679 0.301201
v 0.289705 0.463679 -0.141856
v 0.266682 1.020847 0.301201
v 0.289705 1.020847 -0.141856
v 0.278456 1.020847 0.074619
v -0.116856 0.463679 0.281271
v -0.093833 0.463679 -0.161786
v -0.116856 1.020847 0.281271
v -0.093833 1.020847 -0.161786
v -0.105082 1.020847 0.054689
v -0.111268 0.463679 0.288683
v 0.260355 0.463679 0.307994
v -0.111268 1.020847 0.288683
v 0.260355 1.020847 0.307994
v 0.284117 0.463679 -0.149268
v -0.087507 0.463679 -0.168579
v 0.284117 1.020847 -0.149268
v -0.087507 1.020847 -0.168579
vn 0.0519 -0.0000 -0.9987
vn -0.0000 -1.0000 -0.0000
vn -0.9946 0.0902 -0.0517
vn -0.0356 0.7275 0.6852
vn -0.0205 0.9187 0.3945
vn 0.4556 0.8899 0.0237
vn 0.0205 0.9187 -0.3945
vn -0.4556 0.8899 -0.0237
vn -0.0519 -0.0000 0.9987
vn -0.0000 1.0000 -0.0000
vn -0.9987 -0.0000 -0.0519
vn 0.9987 -0.0000 0.0519
vn 0.0363 0.7152 -0.6980
vn -0.0214 -0.9111 0.4117
vn 0.9817 -0.1856 -0.0426
vn -0.9720 -0.1856 -0.1441
vn 0.9716 -0.1851 0.1474
vn 0.0214 -0.9111 -0.4117
vn -0.9816 -0.1851 0.0459
vn 0.1274 0.9918 0.0066
vn 0.0466 -0.0405 -0.9981
vn -0.1274 -0.9918 -0.0066
vn -0.0571 -0.0405 0.9975
vn -0.0516 0.1074 0.9929
vn 0.9946 0.0902 0.0517
vn 0.0516 0.1074 -0.9929
vt 0.000000 0.000000
vt 1.000000 0.000000
vt 1.000000 1.000000
vt 0.000000 1.000000
vt 0.830180 0.169820
vt 0.831653 0.831653
vt 0.168347 0.831653
vt 0.169820 0.169820
vt 0.931338 0.068662
vt 0.931338 0.508768
vt 0.068662 0.508768
vt 0.068662 0.068662
vt 0.931338 0.931338
vt 0.068662 0.931338
vt 0.084817 0.915183
vt 0.084817 0.084817
vt 0.068662 0.910524
vt 0.068662 0.908385
vt 0.110357 0.931338
vt 0.889643 0.931338
vt 0.068662 0.514406
vt 0.068662 0.889829
vt 0.068662 0.897904
vt 0.931338 0.897904
vt 0.931338 0.889829
vt 0.931338 0.514406
vt 0.068662 0.117557
vt 0.068662 0.110494
vt 0.889643 0.068662
vt 0.110357 0.068662
vt 0.931338 0.117557
vt 0.931338 0.110494
s 1
usemtl facade
f 40/1/1 58/2/1 56/3/1 38/4/1
f 42/1/2 60/2/2 58/3/2 40/4/2
f 41/1/2 59/2/2 60/3/2 42/4/2
f 29/5/3 30/6/3 32/7/3 31/8/3
f 20/9/4 24/10/4 23/11/4 19/12/4
f 5/2/2 3/3/2 1/4/2 7/1/2
f 4/2/5 10/9/5 9/12/5 2/1/5
f 6/3/6 11/13/6 10/9/6 4/2/6
f 8/4/7 12/14/7 11/13/7 6/3/7
f 2/1/8 9/12/8 12/14/8 8/4/8
f 39/1/9 57/2/9 59/3/9 41/4/9
f 44/1/10 62/2/10 61/3/10 43/4/10
f 46/1/11 64/2/11 62/3/11 44/4/11
f 45/1/2 63/2/2 64/3/2 46/4/2
f 43/1/12 61/2/12 63/3/12 45/4/12
f 48/1/10 66/2/10 65/3/10 47/4/10
f 24/10/13 21/13/13 22/14/13 23/11/13
f 14/1/14 20/2/14 19/3/14 13/4/14
f 18/1/15 24/2/15 20/3/15 14/4/15
f 13/1/16 19/2/16 23/3/16 17/4/16
f 15/13/17 21/13/17 24/10/17 18/10/17
f 16/1/18 22/2/18 21/13/18 15/13/18
f 17/1/19 23/2/19 22/3/19 16/4/19
f 50/1/12 68/2/12 66/3/12 48/4/12
f 49/1/2 67/2/2 68/3/2 50/4/2
f 47/1/11 65/2/11 67/3/11 49/4/11
f 25/1/20 29/2/20 31/3/20 27/4/20
f 26/1/21 30/2/21 29/3/21 25/4/21
f 28/1/22 32/2/22 30/3/22 26/4/22
f 27/1/23 31/2/23 32/3/23 28/4/23
f 11/1/12 34/2/12 33/3/12 10/4/12
f 15/1/12 36/2/12 34/3/12 11/4/12
f 18/1/12 37/2/12 36/3/12 15/4/12
f 14/1/12 35/2/12 37/3/12 18/4/12
f 10/1/12 33/2/12 35/3/12 14/4/12
f 9/1/11 38/2/11 39/3/11 12/4/11
f 13/1/11 40/2/11 38/3/11 9/4/11
f 17/1/11 42/2/11 40/3/11 13/4/11
f 16/1/11 41/2/11 42/3/11 17/4/11
f 12/1/11 39/2/11 41/3/11 16/4/11
f 10/1/9 44/2/9 43/3/9 9/4/9
f 14/1/9 46/2/9 44/3/9 10/4/9
f 13/1/9 45/2/9 46/3/9 14/4/9
f 9/1/9 43/2/9 45/3/9 13/4/9
f 12/14/1 48/17/1 47/3/1 11/4/1
f 16/14/1 50/18/1 48/17/1 12/14/1
f 15/1/1 49/2/1 50/18/1 16/14/1
f 11/1/1 47/2/1 49/3/1 15/4/1
f 34/1/10 52/2/10 51/3/10 33/4/10
f 36/1/9 54/2/9 52/3/9 34/4/9
f 37/1/2 55/2/2 54/3/2 36/4/2
f 35/1/2 53/2/2 55/3/2 37/4/2
f 33/1/1 51/2/1 53/3/1 35/4/1
f 38/1/10 56/2/10 57/3/10 39/4/10
usemtl facade1
f 1/4/3 25/15/3 27/16/3 7/1/3
f 3/2/24 4/3/24 2/4/24 1/1/24
f 5/2/25 6/3/25 4/4/25 3/1/25
f 7/2/26 8/3/26 6/4/26 5/1/26
f 66/19/1 68/19/1 67/20/1 65/20/1
f 60/21/11 59/22/11 57/23/11
f 52/24/12 54/25/12 55/26/12
f 58/27/11 60/21/11 57/23/11 56/28/11
f 2/1/3 26/2/3 25/15/3 1/4/3
f 8/1/3 28/2/3 26/3/3 2/4/3
f 7/1/3 27/16/3 28/3/3 8/4/3
f 62/29/9 64/29/9 63/30/9 61/30/9
f 52/24/12 55/26/12 53/31/12 51/32/12
o propeller
v -0.140333 1.107471 -0.019103
v -0.169796 1.179220 0.030124
v -0.172191 1.179808 0.076210
v -0.198969 1.211282 0.591522
v -0.128985 1.316130 -0.237489
v -0.141044 1.151590 -0.005421
v -0.142964 1.179220 0.031518
v -0.138221 1.449074 -0.059756
v -0.139932 1.650689 -0.026829
v -0.147767 1.652611 0.123946
v -0.149744 1.451901 0.161988
v -0.145359 1.179808 0.077604
v -0.172285 1.037622 0.078017
v -0.156097 0.893313 -0.233507
v -0.167935 1.063715 -0.005698
v -0.167604 1.119423 -0.012065
v -0.152542 1.115728 -0.301920
v -0.155588 1.304753 -0.243298
v -0.170521 1.174874 0.044070
v -0.175944 1.452594 0.148436
v -0.171472 1.175107 0.062379
v -0.157910 0.627803 0.319147
v -0.186229 1.312269 0.346351
v -0.145453 1.037622 0.079412
v -0.143058 1.037035 0.033326
v -0.138673 0.764942 -0.051058
v -0.189524 1.124801 0.409760
v -0.124749 0.708523 -0.319022
v -0.174462 1.121106 0.119905
v -0.141103 1.063715 -0.004303
v -0.167166 1.107471 -0.020498
v -0.152397 1.103848 -0.304718
v -0.172723 1.049575 0.086450
v -0.145312 1.341889 -0.441057
v -0.169436 1.048769 0.023198
v -0.167877 1.151590 -0.006815
v -0.156587 0.885588 -0.224078
v -0.165053 1.449074 -0.061150
v -0.166764 1.650689 -0.028223
v -0.174599 1.652611 0.122552
v -0.176576 1.451901 0.160594
v -0.168660 1.059368 0.008248
v -0.174146 1.153128 0.113839
v -0.185984 1.323530 0.341649
v -0.196453 1.354435 0.543103
v -0.189685 1.112995 0.412859
v -0.174205 1.065253 0.114956
v -0.174916 1.109372 0.128639
v -0.186264 0.900713 0.347024
v -0.169890 1.037035 0.031932
v -0.191022 0.718198 0.438603
v -0.184743 0.627803 0.317753
v -0.177028 0.767769 0.169291
v -0.167886 1.136951 -0.006629
v -0.165684 1.450077 -0.049014
v -0.165505 0.764942 -0.052452
v -0.157978 0.621237 -0.197307
v -0.151581 0.708523 -0.320416
v -0.174156 1.138489 0.114025
v -0.173486 1.060552 0.101125
v -0.185784 0.892751 0.337794
v -0.125564 1.103848 -0.303323
v -0.116153 1.197548 -0.484427
v -0.118480 1.341889 -0.439663
v -0.177560 0.774372 0.179534
v -0.164965 0.771281 -0.062859
v -0.143725 1.203517 -0.471597
v -0.145745 1.328887 -0.432716
v -0.167287 1.638973 -0.018164
v -0.174092 1.640642 0.112794
v -0.196037 1.341225 0.535095
v -0.198222 1.216886 0.577151
v -0.147314 1.153128 0.115233
v -0.159152 1.323530 0.343043
v -0.169620 1.354435 0.544497
v -0.172136 1.211282 0.592916
v -0.162852 1.112995 0.414253
v -0.148083 1.109372 0.130033
v -0.147372 1.065253 0.116351
v -0.159431 0.900713 0.348419
v -0.164190 0.718198 0.439997
v -0.190243 0.721751 0.423595
v -0.150196 0.767769 0.170686
v -0.184788 0.643236 0.318629
v -0.157912 0.636643 -0.198575
v -0.152356 0.712456 -0.305504
v -0.131146 0.621237 -0.195913
v -0.169918 1.137450 0.032463
v -0.129265 0.893313 -0.232113
v -0.171843 1.137922 0.069509
v -0.171065 1.072206 0.054531
v -0.169263 1.096792 0.019855
v -0.142986 1.197548 -0.485821
v -0.172729 1.096171 0.086570
v -0.155818 1.316130 -0.238883
vn -0.0007 -0.9999 0.0127
vn 0.0238 -0.8884 -0.4584
vn 0.0496 0.2966 -0.9537
vn -0.0066 0.9920 0.1261
vn -0.0300 0.8161 0.5771
vn 0.0311 0.8012 -0.5977
vn 0.0492 -0.3208 -0.9459
vn 0.0512 0.1614 -0.9856
vn 0.0007 0.9999 -0.0127
vn -0.0510 0.1865 0.9811
vn -0.0496 -0.2966 0.9537
vn 0.0079 0.9885 -0.1512
vn -0.0492 0.3208 0.9459
vn -0.0250 -0.8764 0.4809
vn -0.0464 0.4490 0.8924
vn -0.0311 -0.8012 0.5977
vn 0.0356 -0.7281 -0.6846
vn -0.0365 -0.7104 0.7029
vn 0.0300 -0.8161 -0.5771
vn 0.0469 0.4261 -0.9035
vn 0.9987 -0.0000 0.0519
vn -0.9987 -0.0000 -0.0519
vt 0.000000 0.000000
vt 0.048466 0.000000
vt 0.048466 1.000000
vt 0.000000 1.000000
vt 0.083215 0.000000
vt 0.083215 1.000000
vt 0.108926 0.000000
vt 0.108926 1.000000
vt 0.143676 0.000000
vt 0.143676 1.000000
vt 0.192141 0.000000
vt 0.192141 1.000000
vt 0.200000 0.000000
vt 0.200000 1.000000
vt 0.248466 0.000000
vt 0.248466 1.000000
vt 0.283215 0.000000
vt 0.283215 1.000000
vt 0.308926 0.000000
vt 0.308926 1.000000
vt 0.343675 0.000000
vt 0.343675 1.000000
vt 0.392141 0.000000
vt 0.392141 1.000000
vt 0.400000 0.000000
vt 0.400000 1.000000
vt 0.448466 0.000000
vt 0.448466 1.000000
vt 0.483215 0.000000
vt 0.483215 1.000000
vt 0.508926 0.000000
vt 0.508926 1.000000
vt 0.543675 0.000000
vt 0.543675 1.000000
vt 0.592141 0.000000
vt 0.592141 1.000000
vt 0.600000 0.000000
vt 0.600000 1.000000
vt 0.648466 0.000000
vt 0.648466 1.000000
vt 0.683215 0.000000
vt 0.683215 1.000000
vt 0.708926 0.000000
vt 0.708926 1.000000
vt 0.743676 0.000000
vt 0.743676 1.000000
vt 0.792141 0.000000
vt 0.792141 1.000000
vt 0.800000 0.000000
vt 0.800000 1.000000
vt 0.848466 0.000000
vt 0.848466 1.000000
vt 0.883215 0.000000
vt 0.883215 1.000000
vt 0.908926 0.000000
vt 0.908926 1.000000
vt 0.943676 0.000000
vt 0.943676 1.000000
vt 0.992141 0.000000
vt 0.992141 1.000000
vt 1.000000 0.000000
vt 1.000000 1.000000
s 1
usemtl ground
f 104/36/48 122/36/48 87/36/48 70/36/48
f 163/36/48 86/36/48 122/36/48 104/36/48
f 99/36/48 84/36/48 85/36/48 100/36/48
f 115/36/48 128/36/48 129/36/48 117/36/48
f 83/36/48 110/36/48 84/36/48 99/36/48
f 82/36/48 105/36/48 110/36/48 83/36/48
f 118/36/48 103/36/48 134/36/48 124/36/48
f 81/36/48 101/36/48 103/36/48 118/36/48
f 121/36/48 133/36/48 101/36/48 81/36/48
f 116/36/48 97/36/48 128/36/48 115/36/48
f 114/36/48 95/36/48 97/36/48 116/36/48
f 111/36/48 127/36/48 91/36/48 112/36/48
f 71/36/48 89/36/48 127/36/48 111/36/48
f 109/36/48 88/36/48 89/36/48 71/36/48
f 70/36/48 87/36/48 123/36/48 106/36/48
usemtl facade1
f 99/33/27 100/34/27 130/35/27 69/36/27
f 100/34/28 161/37/28 131/38/28 130/35/28
f 161/37/29 102/39/29 132/40/29 131/38/29
f 102/39/30 163/41/30 73/42/30 132/40/30
f 163/41/31 104/43/31 74/44/31 73/42/31
f 104/43/32 70/45/32 75/46/32 74/44/32
f 70/45/33 106/47/33 76/48/33 75/46/33
f 106/47/34 107/49/34 77/50/34 76/48/34
f 107/49/35 108/51/35 78/52/35 77/50/35
f 108/51/36 109/53/36 79/54/36 78/52/36
f 109/53/37 71/55/37 80/56/37 79/54/37
f 71/55/31 111/57/31 141/58/31 80/56/31
f 111/57/32 112/59/32 142/60/32 141/58/32
f 112/59/38 113/61/38 143/62/38 142/60/38
f 113/61/39 72/63/39 144/64/39 143/62/39
f 72/63/40 114/65/40 145/66/40 144/64/40
f 114/65/27 116/67/27 146/68/27 145/66/27
f 116/67/37 115/69/37 147/70/37 146/68/37
f 115/69/31 117/71/31 148/72/31 147/70/31
f 117/71/41 119/73/41 149/74/41 148/72/41
f 119/73/42 120/75/42 90/76/42 149/74/42
f 120/75/43 121/77/43 151/78/43 90/76/43
f 121/77/33 81/79/33 92/80/33 151/78/33
f 81/79/27 118/81/27 93/82/27 92/80/27
f 118/81/37 124/83/37 94/84/37 93/82/37
f 124/83/44 125/85/44 155/86/44 94/84/44
f 125/85/45 126/87/45 96/88/45 155/86/45
f 126/87/46 82/89/46 157/90/46 96/88/46
f 82/89/32 83/91/32 98/92/32 157/90/32
f 83/91/33 99/93/33 69/94/33 98/92/33
f 75/36/47 141/36/47 147/36/47 98/36/47
f 130/36/47 131/36/47 132/36/47 73/36/47
f 74/36/47 69/36/47 130/36/47 73/36/47
f 75/36/47 98/36/47 69/36/47 74/36/47
f 93/36/47 94/36/47 157/36/47 98/36/47
f 147/36/47 92/36/47 93/36/47 98/36/47
f 155/36/47 96/36/47 157/36/47 94/36/47
f 141/36/47 142/36/47 145/36/47 146/36/47
f 148/36/47 151/36/47 92/36/47 147/36/47
f 148/36/47 149/36/47 90/36/47 151/36/47
f 141/36/47 146/36/47 147/36/47
f 143/36/47 144/36/47 145/36/47 142/36/47
f 77/36/47 78/36/47 79/36/47 76/36/47
f 75/36/47 80/36/47 141/36/47
f 79/36/47 80/36/47 75/36/47 76/36/47
f 102/36/48 136/36/48 86/36/48 163/36/48
f 161/36/48 135/36/48 136/36/48 102/36/48
f 100/36/48 85/36/48 135/36/48 161/36/48
f 101/36/48 133/36/48 129/36/48 128/36/48
f 97/36/48 95/36/48 91/36/48 127/36/48
f 162/36/48 128/36/48 97/36/48
f 110/36/48 103/36/48 159/36/48 160/36/48
f 105/36/48 134/36/48 103/36/48 110/36/48
f 105/36/48 154/36/48 153/36/48 134/36/48
f 122/36/48 86/36/48 85/36/48 84/36/48
f 89/36/48 88/36/48 123/36/48 87/36/48
f 86/36/48 136/36/48 135/36/48 85/36/48
f 126/36/48 154/36/48 105/36/48 82/36/48
f 125/36/48 153/36/48 154/36/48 126/36/48
f 97/36/48 127/36/48 158/36/48 162/36/48
f 159/36/48 103/36/48 101/36/48
f 156/36/48 87/36/48 122/36/48
f 156/36/48 160/36/48 159/36/48
f 138/36/48 137/36/48 123/36/48 88/36/48
f 156/36/48 122/36/48 84/36/48 160/36/48
f 110/36/48 160/36/48 84/36/48
f 162/36/48 159/36/48 101/36/48 128/36/48
f 158/36/48 127/36/48 89/36/48
f 89/36/48 87/36/48 156/36/48 158/36/48
f 150/36/48 129/36/48 133/36/48 152/36/48
f 140/36/48 139/36/48 91/36/48 95/36/48
f 124/36/48 134/36/48 153/36/48 125/36/48
f 120/36/48 152/36/48 133/36/48 121/36/48
f 119/36/48 150/36/48 152/36/48 120/36/48
f 117/36/48 129/36/48 150/36/48 119/36/48
f 159/36/48 162/36/48 158/36/48 156/36/48
f 72/36/48 140/36/48 95/36/48 114/36/48
f 113/36/48 139/36/48 140/36/48 72/36/48
f 112/36/48 91/36/48 139/36/48 113/36/48
f 108/36/48 138/36/48 88/36/48 109/36/48
f 107/36/48 137/36/48 138/36/48 108/36/48
f 106/36/48 123/36/48 137/36/48 107/36/48
